<svg version="1.1" id="ubuntu-logo" xmlns="http://www.w3.org/2000/svg" xmlns:xlink="http://www.w3.org/1999/xlink" viewBox="0 0 757.3 170.1">
<path d="M712,0c25,0,45.3,20.3,45.3,45.3S737,90.6,712,90.6s-45.3-20.3-45.3-45.3S687,0,712,0z M681.2,39.3c-3.3,0-6.1,2.7-6.1,6.1 c0,3.3,2.7,6.1,6.1,6.1c3.3,0,6.1-2.7,6.1-6.1C687.2,42,684.5,39.3,681.2,39.3z M724.4,66.8c-2.9,1.7-3.9,5.4-2.2,8.3 s5.4,3.9,8.3,2.2c2.9-1.7,3.9-5.4,2.2-8.3C731,66.1,727.3,65.1,724.4,66.8z M694.3,45.3c0-6,3-11.3,7.5-14.5l-4.4-7.4 c-5.3,3.5-9.2,8.9-10.9,15.3c1.9,1.6,3.1,3.9,3.1,6.6c0,2.7-1.2,5-3.1,6.6c1.6,6.3,5.6,11.7,10.9,15.3l4.4-7.4 C697.3,56.6,694.3,51.3,694.3,45.3z M712,27.6c9.2,0,16.8,7.1,17.6,16.1l8.6-0.1c-0.4-6.7-3.3-12.6-7.8-17.1c-2.3,0.9-5,0.7-7.3-0.6 c-2.3-1.3-3.7-3.6-4.1-6c-2.2-0.6-4.6-1-7-1c-4.2,0-8.1,1-11.7,2.7l4.2,7.5C706.8,28.2,709.3,27.6,712,27.6z M712,63 c-2.7,0-5.2-0.6-7.4-1.6l-4.2,7.5c3.5,1.7,7.5,2.7,11.6,2.7c2.4,0,4.8-0.3,7-1c0.4-2.4,1.8-4.7,4.1-6c2.3-1.3,5-1.5,7.3-0.6 c4.5-4.4,7.4-10.4,7.8-17.1l-8.6-0.1C728.8,55.9,721.2,63,712,63z M724.4,23.9c2.9,1.7,6.6,0.7,8.3-2.2s0.7-6.6-2.2-8.3 s-6.6-0.7-8.3,2.2C720.5,18.5,721.5,22.2,724.4,23.9z"/> <path d="M90.6,164.3c-4.6,1.2-10.7,2.4-18.2,3.7c-7.6,1.3-16.3,1.9-26.2,1.9c-8.6,0-15.9-1.3-21.8-3.8s-10.6-6.1-14.2-10.7 s-6.2-10-7.8-16.3S0,125.9,0,118.3v-63h20.1V114c0,13.7,2.2,23.5,6.5,29.4s11.6,8.9,21.8,8.9c2.2,0,4.4-0.1,6.7-0.2 c2.3-0.1,4.5-0.3,6.5-0.5s3.8-0.4,5.5-0.6c1.7-0.2,2.8-0.5,3.6-0.8V55.3h20.1L90.6,164.3L90.6,164.3z"/> <path d="M139.6,60.2c2.4-1.6,6.2-3.2,11.1-5c5-1.7,10.7-2.6,17.2-2.6c8.1,0,15.2,1.4,21.5,4.3c6.3,2.9,11.5,6.9,15.9,12.1 c4.3,5.2,7.6,11.4,9.8,18.6s3.3,15.1,3.3,23.7c0,9.1-1.3,17.2-4,24.5s-6.4,13.4-11.3,18.5c-4.9,5-10.8,8.9-17.7,11.7 c-6.9,2.7-14.7,4.1-23.3,4.1c-9.4,0-17.6-0.6-24.8-1.9c-7.2-1.3-13.1-2.6-17.7-3.9V3.5l20-3.5V60.2z M139.6,150 c2,0.6,4.9,1.1,8.5,1.6c3.7,0.5,8.2,0.8,13.7,0.8c10.8,0,19.4-3.6,25.9-10.7c6.5-7.1,9.7-17.2,9.7-30.3c0-5.8-0.6-11.1-1.7-16.2 c-1.2-5-3-9.4-5.6-13.1s-5.9-6.5-10-8.6s-9-3.1-14.8-3.1c-5.5,0-10.5,0.9-15.1,2.8s-8.1,3.8-10.6,5.8L139.6,150L139.6,150z"/> <path d="M330.4,164.3c-4.6,1.2-10.7,2.4-18.2,3.7c-7.6,1.3-16.3,1.9-26.2,1.9c-8.6,0-15.9-1.3-21.8-3.8s-10.6-6.1-14.2-10.7 c-3.6-4.6-6.2-10-7.8-16.3c-1.6-6.3-2.4-13.2-2.4-20.8v-63h20V114c0,13.7,2.2,23.5,6.5,29.4s11.6,8.9,21.8,8.9 c2.2,0,4.4-0.1,6.7-0.2c2.3-0.1,4.5-0.3,6.5-0.5s3.8-0.4,5.5-0.6c1.7-0.2,2.8-0.5,3.6-0.8V55.3h20.1L330.4,164.3L330.4,164.3z"/> <path d="M359.3,58.5c4.6-1.2,10.7-2.4,18.3-3.7c7.6-1.3,16.4-1.9,26.3-1.9c8.9,0,16.3,1.3,22.2,3.8c5.9,2.5,10.6,6,14.1,10.6 c3.5,4.5,6,10,7.4,16.3c1.4,6.3,2.2,13.3,2.2,20.9v63h-20.1v-58.7c0-6.9-0.5-12.8-1.4-17.7c-0.9-4.9-2.5-8.8-4.6-11.9 c-2.2-3-5-5.2-8.6-6.6s-8.1-2.1-13.4-2.1c-2.2,0-4.4,0.1-6.7,0.2c-2.3,0.1-4.5,0.3-6.6,0.5s-4,0.5-5.6,0.8c-1.7,0.3-2.8,0.5-3.6,0.6 v94.8h-20.1L359.3,58.5L359.3,58.5z"/> <path d="M496.4,55.3h42.5v16.8h-42.5v51.8c0,5.6,0.4,10.3,1.3,13.9c0.9,3.7,2.2,6.6,3.9,8.6c1.7,2.1,3.9,3.6,6.5,4.4 s5.6,1.3,9.1,1.3c6.2,0,11.1-0.7,14.7-2.1c3.6-1.4,6-2.3,7.3-2.9l4.3,16.4c-2,1-5.6,2.3-10.7,3.9c-5.1,1.6-10.9,2.4-17.4,2.4 c-7.6,0-13.9-1-18.9-2.9s-9-4.9-12-8.7c-3-3.9-5.1-8.7-6.4-14.4c-1.2-5.7-1.8-12.3-1.8-19.7V24l20.1-3.5L496.4,55.3L496.4,55.3z"/> <path d="M648.1,164.3c-4.6,1.2-10.7,2.4-18.2,3.7c-7.6,1.3-16.3,1.9-26.2,1.9c-8.6,0-15.9-1.3-21.8-3.8c-5.9-2.5-10.7-6.1-14.2-10.7 c-3.6-4.6-6.2-10-7.8-16.3s-2.4-13.2-2.4-20.8v-63h20.1V114c0,13.7,2.2,23.5,6.5,29.4s11.6,8.9,21.8,8.9c2.2,0,4.4-0.1,6.7-0.2 c2.3-0.1,4.5-0.3,6.5-0.5s3.8-0.4,5.5-0.6c1.7-0.2,2.8-0.5,3.6-0.8V55.3h20.1v109H648.1z"/> </svg>
